<?xml version="1.0" encoding="UTF-8" standalone="no"?>
<svg width="59px" height="60px" viewBox="0 0 59 60" version="1.1" xmlns="http://www.w3.org/2000/svg" xmlns:xlink="http://www.w3.org/1999/xlink" xmlns:sketch="http://www.bohemiancoding.com/sketch/ns">
    <title>web-telephone 3</title>
    <description>Created with Sketch (http://www.bohemiancoding.com/sketch)</description>
    <defs></defs>
    <g id="Page-1" stroke="none" stroke-width="1" fill="none" fill-rule="evenodd" sketch:type="MSPage">
        <g id="Mobile" sketch:type="MSArtboardGroup" transform="translate(-287.000000, -663.000000)">
            <rect id="Bg-color" sketch:type="MSShapeGroup" x="9" y="-4" width="641" height="1137"></rect>
            <g id="Drawing-Tools" sketch:type="MSLayerGroup" transform="translate(194.000000, 664.000000)"></g>
            <g id="tool-draw" sketch:type="MSLayerGroup" transform="translate(289.500000, 664.000000)" stroke="#979797">
                <path d="M45.2983827,3.2473264 L2.81600344,45.1913615 L-0.0885216065,55.893825 L10.2217323,53.1662138 L53.0398512,10.8906937 C53.0398512,10.8906937 57.0047412,7.13556201 53.0398512,3.2473264 C49.3141275,-0.406366658 45.4824364,3.07409753 45.2983827,3.2473264 L45.2983827,3.2473264 Z" id="path2656" stroke-width="3.749211" sketch:type="MSShapeGroup"></path>
                <path d="M11.6306675,51.2592872 C11.6306675,51.2592872 9.39386526,52.1900819 8.37184423,51.1456943 C7.34982319,50.1012972 7.85264272,47.9833779 7.85264272,47.9833779 C7.85264272,47.9833779 6.04031101,48.9093232 5.30127513,47.8616884 C4.56223925,46.8140537 4.26121579,46.214023 4.65411098,45.1534422 C5.04701093,44.092866 4.75049347,43.6436501 4.75049347,43.6436501" id="path2658" stroke-width="1.91453818" sketch:type="MSShapeGroup"></path>
                <path d="M0.713168623,54.8589997 L2.95275374,52.9636807" id="path2662" stroke-width="5.2072375" sketch:type="MSShapeGroup"></path>
                <path d="M7.99955061,48.0674498 C10.0791585,46.014195 52.7911718,4.47520739 52.7911718,4.47520739" id="path2664" stroke-width="2.2911845" sketch:type="MSShapeGroup"></path>
                <path d="M54.1285146,4.42925948 C54.1285146,6.55181687 52.8184166,8.2724896 51.2023288,8.2724896 C49.586241,8.2724896 48.2761431,6.55181687 48.2761431,4.42925948 C48.2761431,2.3067021 49.586241,0.58602937 51.2023288,0.58602937 C52.8184166,0.58602937 54.1285146,2.3067021 54.1285146,4.42925948 L54.1285146,4.42925948 Z" id="path2666" stroke-width="1.89395349" sketch:type="MSShapeGroup" transform="translate(51.210725, 4.481509) rotate(11.490580) translate(-51.210725, -4.481509) "></path>
            </g>
        </g>
    </g>
</svg>